HIERARCHY
ROOT Hips
{
	OFFSET 0.000000 0.000000 0.000000
	CHANNELS 6 Xposition Yposition Zposition Xrotation Yrotation Zrotation
	JOINT LeftUpLeg_virtual
	{
		OFFSET 0.000000 0.000000 0.000000
		CHANNELS 3 Xrotation Yrotation Zrotation
		JOINT LeftUpLeg
		{
			OFFSET 10.205400 -3.823500 0.155100
			CHANNELS 3 Xrotation Yrotation Zrotation
			JOINT LeftLeg
			{
				OFFSET 0.708757 -12.982077 0.567790
				CHANNELS 3 Xrotation Yrotation Zrotation
				JOINT LeftFoot
				{
					OFFSET -0.708756 -10.717838 -2.184338
					CHANNELS 3 Xrotation Yrotation Zrotation
					JOINT LeftToeBase
					{
						OFFSET 0.108149 -7.191104 7.560241
						CHANNELS 3 Xrotation Yrotation Zrotation
						JOINT LeftToe_End
						{
							OFFSET 0.070230 0.081724 4.490308
							CHANNELS 3 Xrotation Yrotation Zrotation
							End Site
							{
								OFFSET 0 0 0
							}
						}
					}
				}
			}
		}
	}
	JOINT RightUpLeg_virtual
	{
		OFFSET 0.000000 0.000000 0.000000
		CHANNELS 3 Xrotation Yrotation Zrotation
		JOINT RightUpLeg
		{
			OFFSET -10.205400 -3.823500 0.005500
			CHANNELS 3 Xrotation Yrotation Zrotation
			JOINT RightLeg
			{
				OFFSET -0.708756 -12.982134 0.610632
				CHANNELS 3 Xrotation Yrotation Zrotation
				JOINT RightFoot
				{
					OFFSET 0.708754 -10.717769 -1.945823
					CHANNELS 3 Xrotation Yrotation Zrotation
					JOINT RightToeBase
					{
						OFFSET -0.108140 -7.191069 7.372968
						CHANNELS 3 Xrotation Yrotation Zrotation
						JOINT RightToe_End
						{
							OFFSET -0.070227 0.081735 4.479403
							CHANNELS 3 Xrotation Yrotation Zrotation
							End Site
							{
								OFFSET 0 0 0
							}
						}
					}
				}
			}
		}
	}
	JOINT Spine_virtual
	{
		OFFSET 0.000000 0.000000 0.000000
		CHANNELS 3 Xrotation Yrotation Zrotation
		JOINT Spine
		{
			OFFSET 0.000000 6.876099 0.125700
			CHANNELS 3 Xrotation Yrotation Zrotation
			JOINT Spine1
			{
				OFFSET 0.000000 5.730043 0.104720
				CHANNELS 3 Xrotation Yrotation Zrotation
				JOINT Spine1_split
				{
					OFFSET 0.000000 5.730043 0.104720
					CHANNELS 3 Xrotation Yrotation Zrotation
					JOINT Spine2
					{
						OFFSET 0.000000 5.730043 0.104720
						CHANNELS 3 Xrotation Yrotation Zrotation
						JOINT Neck_virtual
						{
							OFFSET 0.000000 0.000000 0.000000
							CHANNELS 3 Xrotation Yrotation Zrotation
							JOINT Neck
							{
								OFFSET 0.000000 10.314075 0.188496
								CHANNELS 3 Xrotation Yrotation Zrotation
								JOINT Head
								{
									OFFSET 0.000000 7.643700 -2.377400
									CHANNELS 3 Xrotation Yrotation Zrotation
									JOINT HeadTop_End
									{
										OFFSET 0.000000 43.788605 -13.619600
										CHANNELS 3 Xrotation Yrotation Zrotation
										End Site
										{
											OFFSET 0 0 0
										}
									}
								}
							}
						}
						JOINT LeftShoulder_virtual
						{
							OFFSET 0.000000 0.000000 0.000000
							CHANNELS 3 Xrotation Yrotation Zrotation
							JOINT LeftShoulder
							{
								OFFSET 2.196100 4.412489 0.087492
								CHANNELS 3 Xrotation Yrotation Zrotation
								JOINT LeftShoulder_split
								{
									OFFSET 2.196100 4.412489 0.087492
									CHANNELS 3 Xrotation Yrotation Zrotation
									JOINT LeftArm
									{
										OFFSET 8.771219 -2.981674 -0.026999
										CHANNELS 3 Xrotation Yrotation Zrotation
										JOINT LeftForeArm
										{
											OFFSET 8.512804 0.000000 -0.000000
											CHANNELS 3 Xrotation Yrotation Zrotation
											JOINT LeftHand
											{
												OFFSET 18.484802 0.000000 -0.000000
												CHANNELS 3 Xrotation Yrotation Zrotation
												End Site
												{
													OFFSET 0 0 0
												}
											}
										}
									}
								}
							}
						}
						JOINT RightShoulder_virtual
						{
							OFFSET 0.000000 0.000000 0.000000
							CHANNELS 3 Xrotation Yrotation Zrotation
							JOINT RightShoulder
							{
								OFFSET -2.196100 4.412496 0.070690
								CHANNELS 3 Xrotation Yrotation Zrotation
								JOINT RightShoulder_split
								{
									OFFSET -2.196100 4.412496 0.070690
									CHANNELS 3 Xrotation Yrotation Zrotation
									JOINT RightArm
									{
										OFFSET -8.771282 -2.981682 -0.094208
										CHANNELS 3 Xrotation Yrotation Zrotation
										JOINT RightForeArm
										{
											OFFSET -8.494598 0.000000 0.000000
											CHANNELS 3 Xrotation Yrotation Zrotation
											JOINT RightHand
											{
												OFFSET -18.483803 0.000000 0.000001
												CHANNELS 3 Xrotation Yrotation Zrotation
												End Site
												{
													OFFSET 0 0 0
												}
											}
										}
									}
								}
							}
						}
					}
				}
			}
		}
	}
}
MOTION
Frames: 11
Frame Time: 0.03333333
1.734754 31.672539 0.951565 0.000000 0.000000 0.000000 15.790153 -85.085620 17.503384 -22.110772 30.845291 29.441653 24.257480 -11.749097 0.017440 -10.670661 4.605634 -20.110717 0.899030 -0.292921 -0.412323 0.000000 0.000000 0.000000 7.468765 -84.589482 10.008475 -20.561919 -10.110981 -26.162616 12.810571 7.417474 -4.623800 -3.226821 4.833126 25.521552 3.336979 -0.290957 0.321430 0.000000 0.000000 0.000000 7.317418 -80.938930 9.467568 6.601325 -3.863431 -2.874550 1.984964 -7.924368 -0.430438 0.505425 0.315501 0.192622 0.000000 0.000000 0.000000 1.977097 -8.382672 -0.873857 -8.351493 6.219082 7.020682 91.225332 78.026565 -95.091669 0.000000 0.000000 0.000000 3.300988 -8.965416 -0.208692 5.113827 -1.280196 11.103238 -3.613934 -4.442813 3.043357 -35.366501 11.723085 -3.174679 -3.882257 -10.870559 0.459902 0.000000 0.000000 0.000000 2.533707 -8.682021 -0.827838 -0.105694 1.099864 -21.503493 0.923208 1.581588 7.586079 -49.862150 42.139976 44.878267 179.096562 37.379580 -177.985168 0.000000 0.000000 0.000000 
1.699182 31.669952 0.947863 0.000000 0.000000 0.000000 15.045703 -84.988549 16.814076 -21.998103 30.815935 29.372272 24.209378 -11.837816 0.001811 -10.682716 4.631304 -20.116637 0.889907 -0.292417 -0.416811 0.000000 0.000000 0.000000 6.862717 -84.497896 9.469070 -20.303605 -10.060500 -26.246590 12.864416 7.222204 -4.649612 -3.446434 4.756352 25.634740 3.323699 -0.299237 0.314930 0.000000 0.000000 0.000000 7.112553 -80.832284 9.313139 6.579659 -3.962567 -2.938359 1.978611 -8.016449 -0.414757 0.505436 0.315829 0.188666 0.000000 0.000000 0.000000 1.981323 -8.476216 -0.862376 -8.373010 6.291087 7.241537 93.917990 77.959615 -97.583500 0.000000 0.000000 0.000000 3.319477 -9.059790 -0.183682 5.023446 -1.056765 11.122458 -3.640896 -4.444536 3.025372 -35.325988 11.572738 -3.396368 -3.890758 -10.886795 0.453984 0.000000 0.000000 0.000000 2.549745 -8.778046 -0.820386 -0.012262 1.150339 -21.426502 0.905750 1.586364 7.641517 -49.362057 41.684518 44.644808 179.116534 37.018584 -177.976657 0.000000 0.000000 0.000000 
1.664356 31.667530 0.945925 0.000000 0.000000 0.000000 14.258385 -84.894737 16.090746 -21.890358 30.785356 29.295743 24.169570 -11.920770 -0.006532 -10.683606 4.649434 -20.125846 0.885369 -0.290728 -0.422861 0.000000 0.000000 0.000000 6.219814 -84.403988 8.899866 -20.033297 -10.015700 -26.333745 12.916175 7.027783 -4.682409 -3.672050 4.674120 25.757313 3.303210 -0.308121 0.312544 0.000000 0.000000 0.000000 6.856676 -80.730295 9.117911 6.568374 -4.059606 -3.014340 1.970245 -8.108010 -0.392910 0.506495 0.314726 0.186206 0.000000 0.000000 0.000000 1.985021 -8.568622 -0.845497 -8.394166 6.370862 7.462082 96.585644 77.855059 -100.032581 0.000000 0.000000 0.000000 3.341069 -9.154221 -0.152018 4.931941 -0.841550 11.144947 -3.661044 -4.443520 3.011408 -35.294729 11.434778 -3.616722 -3.905971 -10.889605 0.439762 0.000000 0.000000 0.000000 2.565632 -8.873457 -0.807505 0.087465 1.202502 -21.341029 0.887513 1.599170 7.693411 -48.829972 41.217217 44.385742 179.144578 36.664005 -177.966425 0.000000 0.000000 0.000000 
1.630415 31.664495 0.944588 0.000000 0.000000 0.000000 13.442585 -84.802686 15.345239 -21.791097 30.753692 29.215799 24.138935 -11.997906 -0.008868 -10.679896 4.662578 -20.135574 0.888491 -0.287679 -0.432077 0.000000 0.000000 0.000000 5.551685 -84.304916 8.309667 -19.754584 -9.976131 -26.426702 12.974571 6.835925 -4.722030 -3.899157 4.587211 25.893276 3.272307 -0.318043 0.315050 0.000000 0.000000 0.000000 6.555032 -80.633552 8.885316 6.569936 -4.154460 -3.100786 1.960110 -8.197239 -0.364554 0.506950 0.315341 0.186167 0.000000 0.000000 0.000000 1.987888 -8.657525 -0.823095 -8.412135 6.457370 7.673560 99.167899 77.717492 -102.389228 0.000000 0.000000 0.000000 3.365108 -9.246899 -0.113873 4.843001 -0.645877 11.171819 -3.668794 -4.439485 2.999236 -35.274000 11.320152 -3.824557 -3.927321 -10.886560 0.417647 0.000000 0.000000 0.000000 2.580484 -8.966245 -0.788469 0.193119 1.259896 -21.246169 0.866659 1.614606 7.736922 -48.273848 40.753574 44.098013 179.184467 36.328188 -177.956740 0.000000 0.000000 0.000000 
1.597208 31.660011 0.944166 0.000000 0.000000 0.000000 12.623544 -84.710984 14.599840 -21.701304 30.720634 29.135511 24.117876 -12.071820 -0.006785 -10.676878 4.672785 -20.146891 0.896975 -0.283243 -0.443941 0.000000 0.000000 0.000000 4.874016 -84.200660 7.711999 -19.477722 -9.942253 -26.528818 13.052456 6.646438 -4.766053 -4.129489 4.496072 26.041155 3.246517 -0.328321 0.321209 0.000000 0.000000 0.000000 6.216854 -80.542438 8.622990 6.585205 -4.247978 -3.196085 1.948201 -8.282421 -0.329596 0.506998 0.313753 0.190966 0.000000 0.000000 0.000000 1.989579 -8.741419 -0.794707 -8.425128 6.549415 7.867947 101.613503 77.553349 -104.612455 0.000000 0.000000 0.000000 3.389410 -9.335493 -0.070072 4.760955 -0.480431 11.202780 -3.662914 -4.436346 2.989627 -35.263570 11.237974 -4.010461 -3.950700 -10.886892 0.391598 0.000000 0.000000 0.000000 2.594047 -9.054145 -0.762454 0.302934 1.323387 -21.142321 0.844104 1.630639 7.769566 -47.700658 40.305715 43.781977 179.237742 36.020908 -177.948872 0.000000 0.000000 0.000000 
1.564952 31.653675 0.943575 0.000000 0.000000 0.000000 11.838582 -84.620682 13.888274 -21.619461 30.687418 29.057394 24.107306 -12.145024 -0.002771 -10.676714 4.681326 -20.160512 0.905095 -0.277735 -0.456436 0.000000 0.000000 0.000000 4.215861 -84.091704 7.133418 -19.213110 -9.913946 -26.641443 13.154966 6.459002 -4.811842 -4.368660 4.400296 26.193991 3.241051 -0.337152 0.327782 0.000000 0.000000 0.000000 5.867848 -80.455435 8.351411 6.612119 -4.340067 -3.298453 1.935210 -8.362131 -0.288401 0.506612 0.309579 0.193784 0.000000 0.000000 0.000000 1.990136 -8.818835 -0.760413 -8.434052 6.643881 8.041102 103.888550 77.370539 -106.678273 0.000000 0.000000 0.000000 3.412145 -9.418104 -0.021372 4.690067 -0.354416 11.239741 -3.643113 -4.433603 2.982650 -35.260408 11.188666 -4.165474 -3.969663 -10.891269 0.365977 0.000000 0.000000 0.000000 2.605277 -9.135105 -0.729298 0.415140 1.393184 -21.030533 0.824452 1.647587 7.789231 -47.115171 39.878159 43.442769 179.302848 35.748377 -177.941222 0.000000 0.000000 0.000000 
1.533247 31.645714 0.942327 0.000000 0.000000 0.000000 11.111406 -84.532948 13.232322 -21.544396 30.654500 28.983348 24.104281 -12.220002 0.000547 -10.678319 4.688861 -20.176372 0.907169 -0.271498 -0.466665 0.000000 0.000000 0.000000 3.588321 -83.982428 6.583828 -18.967338 -9.891570 -26.764735 13.286904 6.270961 -4.856521 -4.616799 4.299239 26.345805 3.254355 -0.343382 0.331681 0.000000 0.000000 0.000000 5.526914 -80.371690 8.085604 6.648492 -4.430783 -3.403596 1.920685 -8.435461 -0.243260 0.503422 0.304545 0.197259 0.000000 0.000000 0.000000 1.989552 -8.889602 -0.722061 -8.442005 6.738619 8.191298 105.975767 77.175045 -108.575911 0.000000 0.000000 0.000000 3.431363 -9.493866 0.029259 4.635380 -0.273944 11.281446 -3.609898 -4.430958 2.975030 -35.261289 11.167771 -4.284957 -3.977522 -10.886356 0.346051 0.000000 0.000000 0.000000 2.613896 -9.208438 -0.690740 0.526914 1.467341 -20.911671 0.811092 1.664471 7.792232 -46.515815 39.471349 43.090957 179.376136 35.512175 -177.931496 0.000000 0.000000 0.000000 
1.502493 31.636629 0.940166 0.000000 0.000000 0.000000 10.455123 -84.449845 12.643791 -21.471719 30.623385 28.912143 24.104701 -12.297690 0.001584 -10.680867 4.695215 -20.192481 0.901634 -0.265140 -0.473459 0.000000 0.000000 0.000000 3.009499 -83.877469 6.080871 -18.745461 -9.873331 -26.896148 13.440820 6.083746 -4.898433 -4.865142 4.195662 26.496262 3.273772 -0.346644 0.330919 0.000000 0.000000 0.000000 5.212909 -80.290663 7.841684 6.689360 -4.520124 -3.505907 1.904274 -8.502529 -0.198038 0.499222 0.301042 0.199499 0.000000 0.000000 0.000000 1.986923 -8.954360 -0.682954 -8.451034 6.831486 8.319948 107.868795 76.971731 -110.300636 0.000000 0.000000 0.000000 3.445770 -9.562636 0.077971 4.600738 -0.242268 11.327160 -3.564188 -4.435771 2.969828 -35.261483 11.173377 -4.364872 -3.972420 -10.857720 0.334892 0.000000 0.000000 0.000000 2.619370 -9.274355 -0.650700 0.635806 1.545481 -20.789713 0.809327 1.686598 7.783323 -45.907607 39.080901 42.735845 179.452156 35.310384 -177.916606 0.000000 0.000000 0.000000 
1.472912 31.627344 0.936834 0.000000 0.000000 0.000000 9.871520 -84.371483 12.123907 -21.397651 30.595778 28.842417 24.102003 -12.379015 -0.000573 -10.685952 4.700560 -20.206316 0.891616 -0.259265 -0.478300 0.000000 0.000000 0.000000 2.481891 -83.781136 5.627138 -18.547374 -9.854670 -27.032360 13.602379 5.900125 -4.936926 -5.101618 4.093051 26.647350 3.284856 -0.347881 0.327019 0.000000 0.000000 0.000000 4.941366 -80.212608 7.633198 6.731523 -4.607053 -3.597275 1.884400 -8.563722 -0.158001 0.497373 0.302574 0.201746 0.000000 0.000000 0.000000 1.981158 -9.014094 -0.648438 -8.464984 6.920849 8.428424 109.576308 76.763103 -111.860843 0.000000 0.000000 0.000000 3.453905 -9.625144 0.119804 4.588984 -0.256923 11.371416 -3.509266 -4.452662 2.968023 -35.260742 11.201672 -4.404018 -3.956563 -10.801897 0.332111 0.000000 0.000000 0.000000 2.620821 -9.333802 -0.614725 0.738888 1.626807 -20.669187 0.820017 1.712482 7.757785 -45.294061 38.700210 42.384520 179.525689 35.141166 -177.895897 0.000000 0.000000 0.000000 
1.444502 31.618631 0.932983 0.000000 0.000000 0.000000 9.350643 -84.298823 11.664006 -21.318035 30.572132 28.771222 24.091016 -12.464061 -0.005067 -10.693986 4.704235 -20.217981 0.882583 -0.253909 -0.483269 0.000000 0.000000 0.000000 2.004145 -83.695526 5.222356 -18.369944 -9.832086 -27.169150 13.757338 5.723010 -4.973020 -5.318701 3.994573 26.797446 3.281262 -0.348862 0.323809 0.000000 0.000000 0.000000 4.709037 -80.138828 7.459149 6.772907 -4.691564 -3.669921 1.859553 -8.619897 -0.128707 0.496623 0.308721 0.205827 0.000000 0.000000 0.000000 1.969746 -9.070206 -0.623720 -8.484844 7.007021 8.519230 111.099072 76.551647 -113.253300 0.000000 0.000000 0.000000 3.454737 -9.681859 0.149562 4.600954 -0.313212 11.408944 -3.448267 -4.484773 2.968990 -35.261084 11.257852 -4.400224 -3.936593 -10.732441 0.335512 0.000000 0.000000 0.000000 2.617291 -9.388102 -0.588699 0.833941 1.711858 -20.554652 0.837803 1.743188 7.724204 -44.680550 38.321159 42.039500 179.592830 35.006454 -177.869478 0.000000 0.000000 0.000000 
1.417600 31.611198 0.928362 0.000000 0.000000 0.000000 8.877795 -84.233636 11.251492 -21.228390 30.553752 28.695226 24.069180 -12.553312 -0.010726 -10.702323 4.704979 -20.230947 0.876811 -0.248895 -0.490654 0.000000 0.000000 0.000000 1.574052 -83.620285 4.865063 -18.209455 -9.801975 -27.302281 13.891381 5.554370 -5.007763 -5.510644 3.902836 26.940563 3.268980 -0.351049 0.324103 0.000000 0.000000 0.000000 4.520662 -80.071441 7.324282 6.813169 -4.772439 -3.717741 1.829003 -8.671583 -0.114843 0.496026 0.317263 0.205750 0.000000 0.000000 0.000000 1.951706 -9.122971 -0.613194 -8.511260 7.088955 8.594349 112.449769 76.339563 -114.489256 0.000000 0.000000 0.000000 3.447937 -9.733540 0.163785 4.636075 -0.406687 11.434159 -3.386607 -4.532767 2.969200 -35.262276 11.348489 -4.350681 -3.919363 -10.668996 0.340972 0.000000 0.000000 0.000000 2.607197 -9.437964 -0.577098 0.919912 1.804090 -20.447792 0.864470 1.777191 7.688782 -44.067981 37.935704 41.698506 179.651064 34.909862 -177.838756 0.000000 0.000000 0.000000 
